<svg xmlns="http://www.w3.org/2000/svg" viewBox="0 0 1100 760">
  <rect width="1100" height="760" rx="42" fill="#f8fafc" />
  <rect x="52" y="52" width="996" height="656" rx="34" fill="#ffffff" stroke="#dbeafe" />
  <text x="96" y="122" fill="#2563eb" font-family="Arial, sans-serif" font-size="13" font-weight="800" letter-spacing="3">PROJECT INTAKE</text>
  <text x="96" y="174" fill="#0f172a" font-family="Arial, sans-serif" font-size="44" font-weight="800">Questionnaire builder</text>
  <text x="96" y="212" fill="#64748b" font-family="Arial, sans-serif" font-size="16">Collect project goals, services, budget range, brand links, launch needs, and follow-up notes.</text>
  <rect x="96" y="270" width="410" height="70" rx="18" fill="#f1f5f9" />
  <text x="126" y="313" fill="#0f172a" font-family="Arial, sans-serif" font-size="17" font-weight="700">What are you building?</text>
  <rect x="96" y="368" width="410" height="70" rx="18" fill="#f1f5f9" />
  <text x="126" y="411" fill="#0f172a" font-family="Arial, sans-serif" font-size="17" font-weight="700">Which services do you need?</text>
  <rect x="96" y="466" width="410" height="70" rx="18" fill="#f1f5f9" />
  <text x="126" y="509" fill="#0f172a" font-family="Arial, sans-serif" font-size="17" font-weight="700">Budget and timeline?</text>
  <rect x="96" y="584" width="190" height="52" rx="26" fill="#2563eb" />
  <text x="133" y="617" fill="#ffffff" font-family="Arial, sans-serif" font-size="14" font-weight="800" letter-spacing="1">START INTAKE</text>
  <rect x="594" y="128" width="360" height="480" rx="38" fill="#050712" />
  <rect x="626" y="166" width="296" height="68" rx="20" fill="#111827" />
  <text x="656" y="207" fill="#f8fafc" font-family="Arial, sans-serif" font-size="20" font-weight="800">AI web project</text>
  <rect x="626" y="262" width="296" height="46" rx="18" fill="#1e293b" />
  <rect x="626" y="326" width="296" height="46" rx="18" fill="#1e293b" />
  <rect x="626" y="390" width="296" height="46" rx="18" fill="#1e293b" />
  <rect x="626" y="468" width="140" height="46" rx="23" fill="#7dd3fc" />
  <text x="653" y="497" fill="#0f172a" font-family="Arial, sans-serif" font-size="13" font-weight="800">SUBMIT</text>
  <circle cx="890" cy="554" r="70" fill="#2563eb" opacity="0.24" />
  <circle cx="612" cy="616" r="86" fill="#a78bfa" opacity="0.16" />
</svg>
